<?xml version="1.0" standalone="no"?>
<!DOCTYPE svg PUBLIC "-//W3C//DTD SVG 1.1//EN" "http://www.w3.org/Graphics/SVG/1.1/DTD/svg11.dtd" >
<svg xmlns="http://www.w3.org/2000/svg">
<metadata></metadata>
<defs>
<font id="triplexserifbold" horiz-adv-x="1126" >
<font-face units-per-em="2048" ascent="1536" descent="-512" />
<missing-glyph horiz-adv-x="512" />
<glyph unicode="&#xfb01;" d="M47 709v233h164v107q0 149 87.5 256.5t233.5 138.5l134 -135q-99 -17 -160.5 -89t-61.5 -171v-107h557v-729h107v-213h-344v709h-320v-496h107v-213h-447v213h107v496h-164z" />
<glyph unicode="&#xfb02;" horiz-adv-x="1167" d="M37 709v233h164v76q0 149 87.5 256.5t233.5 138.5h469v-1200h107v-213h-344v1180h-183q-60 -11 -98.5 -56t-38.5 -106v-76h184v-233h-184v-496h107v-213h-447v213h107v496h-164z" />
<glyph horiz-adv-x="2048" />
<glyph horiz-adv-x="2048" />
<glyph horiz-adv-x="682" />
<glyph unicode="&#x9;" horiz-adv-x="512" />
<glyph unicode="&#xd;" horiz-adv-x="512" />
<glyph unicode=" "  horiz-adv-x="512" />
<glyph unicode="&#x09;" horiz-adv-x="512" />
<glyph unicode="&#xa0;" horiz-adv-x="512" />
<glyph unicode="!" horiz-adv-x="655" d="M162 127q0 65 45.5 110.5t109.5 45.5q65 0 110.5 -45.5t45.5 -110.5t-45.5 -110.5t-110.5 -45.5q-64 0 -109.5 45.5t-45.5 110.5zM190 389v1024h254v-1024h-254z" />
<glyph unicode="&#x22;" horiz-adv-x="901" d="M135 1292q0 48 43 95t98 47q56 0 99 -47t43 -95q0 -18 -19 -75l-61 -226h-123l-61 226q-19 57 -19 75zM485 1292q0 48 43 95t99 47q55 0 98 -47t43 -95q0 -21 -18 -75l-62 -226h-123l-61 226q-19 57 -19 75z" />
<glyph unicode="#" horiz-adv-x="1060" d="M82 481v205h129l29 154h-86v204h127l38 195l220 -20l-35 -175h119l39 195l219 -20l-35 -175h88v-204h-129l-29 -154h86v-205h-127l-39 -194l-219 20l35 174h-119l-39 -194l-219 20l35 174h-88zM434 686h119l29 154h-119z" />
<glyph unicode="$" horiz-adv-x="778" d="M29 322l133 192q30 -42 89 -74t105 -32q60 0 91.5 23.5t31.5 62.5q0 18 -12.5 35t-36 32t-41 24t-43.5 21l-92 41q-91 40 -143 100.5t-52 165.5q0 95 58 165.5t149 101.5l2 213h242v-209q101 -27 174 -97l-133 -174q-72 72 -154 72q-49 0 -80.5 -18t-31.5 -54 q0 -16 9 -29.5t27.5 -24t33.5 -18t39.5 -17t33.5 -13.5l92 -41q88 -39 136.5 -99.5t48.5 -166.5q0 -88 -54.5 -160.5t-142.5 -112.5l2 -231h-242v203q-135 25 -239 119z" />
<glyph unicode="%" horiz-adv-x="1433" d="M45 922q0 121 91 214t216 93h885l-797 -1252l-215 91l623 933h-207q16 -30 16 -79q0 -120 -90.5 -213t-214.5 -93t-215.5 93t-91.5 213zM254 922q0 -40 29 -69.5t69 -29.5t68.5 29.5t28.5 69.5t-29 70t-68 30q-41 0 -69.5 -29.5t-28.5 -70.5zM766 285q0 122 90.5 214.5 t216.5 92.5q124 0 214.5 -92.5t90.5 -214.5q0 -120 -90.5 -212.5t-214.5 -92.5t-215.5 92.5t-91.5 212.5zM975 285q0 -40 29 -69.5t69 -29.5q39 0 67.5 29.5t28.5 69.5t-28.5 70t-67.5 30q-41 0 -69.5 -29.5t-28.5 -70.5z" />
<glyph unicode="&#x26;" horiz-adv-x="1146" d="M133 348q0 230 246 318q-85 31 -134.5 102t-49.5 164q0 150 117.5 239t291.5 89q115 0 212.5 -45.5t146.5 -98.5l-123 -194q-62 62 -121 88q-56 24 -115 24q-83 0 -128.5 -36.5t-45.5 -86.5q0 -58 37 -94t86.5 -47.5t112.5 -11.5h30v-205h-30q-56 0 -106.5 -10.5 t-93.5 -33t-68 -61.5t-25 -90q0 -82 63.5 -128t167.5 -46q107 0 184 62v256h236v-389q-84 -77 -201.5 -115.5t-208.5 -38.5q-99 0 -183.5 22.5t-152.5 68t-106.5 122t-38.5 176.5z" />
<glyph unicode="'" horiz-adv-x="614" d="M156 1292q0 48 43 95t98 47t98 -47t43 -95q0 -21 -18 -75l-62 -226h-122l-62 226q-18 54 -18 75z" />
<glyph unicode="(" horiz-adv-x="798" d="M82 686q0 289 101 493.5t329 387.5l172 -154q-188 -153 -271 -320.5t-83 -406.5t83 -406.5t271 -320.5l-172 -154q-228 183 -329 387.5t-101 493.5z" />
<glyph unicode=")" horiz-adv-x="798" d="M115 -41q188 153 271 320.5t83 406.5t-83 406.5t-271 320.5l172 154q228 -183 329 -387.5t101 -493.5t-101 -493.5t-329 -387.5z" />
<glyph unicode="*" horiz-adv-x="778" d="M20 983l218 88l-218 86l93 174l174 -112v194h192v-194l174 112l92 -174l-217 -86l217 -88l-92 -174l-174 113v-195h-192v195l-174 -113z" />
<glyph unicode="+" horiz-adv-x="925" d="M133 559v234h215v254h234v-254h215v-234h-215v-258h-234v258h-215z" />
<glyph unicode="," horiz-adv-x="614" d="M98 -203q33 33 51 54t36.5 59t23.5 80q-92 47 -92 143q0 63 45 104.5t104 41.5q72 0 116 -52t44 -135q0 -65 -28.5 -131.5t-69 -114t-73 -77t-52.5 -41.5q-87 57 -105 69z" />
<glyph unicode="-" horiz-adv-x="860" d="M135 549v254h553v-254h-553z" />
<glyph unicode="." horiz-adv-x="614" d="M131 127q0 65 45.5 110.5t110.5 45.5q64 0 109.5 -45.5t45.5 -110.5t-45.5 -110.5t-109.5 -45.5q-65 0 -110.5 45.5t-45.5 110.5z" />
<glyph unicode="/" horiz-adv-x="847" d="M51 0l516 1288l232 -63l-516 -1288z" />
<glyph unicode="0" horiz-adv-x="1175" d="M96 614q0 120 34 234.5t95.5 207t157.5 148.5t211 56t211 -56t157.5 -148.5t95.5 -207t34 -234.5t-34 -234.5t-95.5 -206.5t-157.5 -148t-211 -56t-211 56t-157.5 148t-95.5 206.5t-34 234.5zM342 614q0 -81 13.5 -151t42 -129t79 -93t117.5 -34t117.5 34t79 93t42 129 t13.5 151t-13.5 151t-42 129t-79 93.5t-117.5 34.5t-117.5 -34.5t-79 -93.5t-42 -129t-13.5 -151z" />
<glyph unicode="1" horiz-adv-x="655" d="M59 1036q122 27 224 75t213 128v-1239h-232v852q-106 -39 -143 -47z" />
<glyph unicode="2" horiz-adv-x="921" d="M61 1085q14 18 48 45t84.5 57.5t120 51.5t137.5 21q174 0 276 -94.5t102 -243.5q0 -154 -163 -308l-154 -143q-53 -49 -96.5 -113t-57.5 -122h471v-236q-612 -2 -751 0q-4 182 59.5 322.5t159.5 234.5l121 119q5 5 39.5 37t48 46.5t36.5 42.5t32.5 52t9.5 47 q0 57 -40.5 95t-113.5 38q-124 0 -235 -133z" />
<glyph unicode="3" horiz-adv-x="942" d="M66 1110q65 65 162 107.5t212 42.5q158 0 263.5 -89t105.5 -239q0 -87 -58.5 -161.5t-156.5 -104.5q115 -25 185.5 -99t70.5 -198q0 -84 -31 -152t-84.5 -112t-123 -73.5t-149 -40.5t-160.5 -9t-159 18v236q80 -30 164.5 -36.5t152 10t111 58.5t43.5 101q0 96 -91.5 135 t-280.5 39v205q171 0 251 44.5t80 118.5q0 58 -41 95.5t-122 37.5q-75 0 -135 -35.5t-91 -76.5z" />
<glyph unicode="4" horiz-adv-x="1007" d="M74 287l98 213q79 173 126.5 359t47.5 349v21h234v-21q0 -265 -136 -651l-12 -35h150v180h233v-180h148v-235h-148v-287h-233v287h-508z" />
<glyph unicode="5" horiz-adv-x="942" d="M131 -14v223q5 -8 33 -11.5t70 0.5t91 13.5t97.5 29t88.5 44.5t64.5 63t24.5 82q0 172 -244 172h-188v627h629v-236h-396v-155q69 -3 127.5 -15.5t116.5 -42t98.5 -73.5t65.5 -115t25 -162q0 -85 -35 -157t-91.5 -120t-126.5 -85t-142 -56.5t-136 -29t-110 -8t-62 11.5z " />
<glyph unicode="6" horiz-adv-x="1003" d="M72 451q0 276 160.5 492t422.5 327l144 -174q-61 -20 -138.5 -59.5t-138.5 -94.5q-125 -109 -174 -256q104 55 195 55q175 0 277 -106t102 -277q0 -167 -119.5 -278t-290.5 -111q-94 0 -172.5 28.5t-139 85.5t-94.5 151t-34 217zM317 369q0 -75 53 -119.5t132 -44.5 t131.5 44.5t52.5 119.5q0 74 -52.5 116.5t-131.5 42.5q-80 0 -132.5 -42.5t-52.5 -116.5z" />
<glyph unicode="7" horiz-adv-x="962" d="M92 993v236h807l-160 -346q-129 -283 -194.5 -485.5t-65.5 -387.5v-10h-233v10q0 196 64 406t192 499l35 78h-445z" />
<glyph unicode="8" horiz-adv-x="1034" d="M70 358q0 111 63 191t172 121q-174 84 -174 252q0 97 54.5 175.5t142 120.5t188.5 42q75 0 146.5 -25.5t126.5 -68.5t86 -107.5t24 -136.5q-15 -179 -178 -252q106 -37 168.5 -117.5t71.5 -194.5q9 -110 -55.5 -201t-169 -139.5t-220.5 -48.5q-109 0 -210.5 48 t-168.5 139t-67 202zM307 369q1 -75 63.5 -120.5t145.5 -45.5q53 0 100 19.5t78.5 58t32.5 88.5q1 74 -63.5 120t-147.5 46t-146.5 -46t-62.5 -120zM369 901q0 -55 44 -90t103 -35q60 0 105 35t45 90t-45 90t-105 35q-59 0 -103 -35t-44 -90z" />
<glyph unicode="9" horiz-adv-x="1003" d="M72 870q0 160 125 275t295 115q94 0 171 -28.5t135.5 -85.5t91 -150.5t32.5 -217.5q0 -276 -160.5 -492t-423.5 -327l-143 174q163 54 276 154q125 109 174 256q-106 -56 -194 -56q-175 0 -277 106t-102 277zM307 860q0 -74 53 -117t132 -43t131.5 43t52.5 117 q0 75 -52.5 119.5t-131.5 44.5t-132 -44.5t-53 -119.5z" />
<glyph unicode=":" horiz-adv-x="614" d="M131 127q0 65 45.5 110.5t110.5 45.5q64 0 109.5 -45.5t45.5 -110.5t-45.5 -110.5t-109.5 -45.5q-65 0 -110.5 45.5t-45.5 110.5zM131 741q0 65 45.5 110.5t110.5 45.5q64 0 109.5 -45.5t45.5 -110.5t-45 -110t-110 -45t-110.5 45.5t-45.5 109.5z" />
<glyph unicode=";" horiz-adv-x="614" d="M104 -203q33 33 51 54t36.5 59t23.5 80q-92 47 -92 143q0 63 45 104.5t104 41.5q72 0 116 -52t44 -135q0 -65 -28.5 -131.5t-69 -114t-73 -77t-52.5 -41.5q-87 57 -105 69zM131 741q0 65 45.5 110.5t110.5 45.5q64 0 109.5 -45.5t45.5 -110.5t-45 -110t-110 -45 t-110.5 45.5t-45.5 109.5z" />
<glyph unicode="&#x3c;" horiz-adv-x="686" d="M102 594l269 395l192 -102l-205 -293l205 -297l-184 -107z" />
<glyph unicode="=" horiz-adv-x="798" d="M143 340v233h512v-233h-512zM143 774v234h512v-234h-512z" />
<glyph unicode="&#x3e;" horiz-adv-x="686" d="M123 297l205 297l-205 293l192 102l269 -395l-277 -404z" />
<glyph unicode="?" horiz-adv-x="950" d="M51 1280q173 154 400 154q86 0 165 -27t142 -77.5t101 -130t38 -175.5q0 -168 -107.5 -287.5t-277.5 -142.5v-184h-225v385q103 -4 176.5 15t111 54t54 74.5t16.5 85.5q0 85 -57.5 134.5t-157.5 49.5q-78 0 -135.5 -29.5t-110.5 -82.5zM244 127q0 65 45.5 110.5 t109.5 45.5q65 0 110.5 -45.5t45.5 -110.5t-45.5 -110.5t-110.5 -45.5q-64 0 -109.5 45.5t-45.5 110.5z" />
<glyph unicode="@" horiz-adv-x="1425" d="M8 224q-11 73 12 153q44 162 186 282.5t300 120.5q131 0 213 -92q55 51 117 86l131 -96q-74 -53 -116.5 -112t-64.5 -138q-43 -145 -43 -215q44 6 95.5 27t105 57t97 81t71 105t27.5 123q0 47 -18 96t-58 96t-96 82t-139.5 52.5t-180.5 9.5q-127 -10 -209 -33t-172 -86 l-35 191q121 78 216 116t212 48q161 16 302 -19t235.5 -105.5t148.5 -168.5t54 -207q0 -120 -50 -230.5t-130 -190.5t-179.5 -142t-200 -94.5t-190.5 -38.5q-17 6 -47 34.5t-45 53.5q-136 -97 -268 -97q-79 0 -141 33t-95.5 89t-44.5 129zM250 377q-20 -71 7.5 -124.5 t92.5 -53.5t121 53.5t76 124.5q19 70 -9.5 124t-93.5 54t-119.5 -53.5t-74.5 -124.5z" />
<glyph unicode="A" d="M25 25l440 1204h197l440 -1204l-242 -56l-82 254h-428l-84 -254zM428 465h270l-135 414z" />
<glyph unicode="B" horiz-adv-x="1024" d="M59 0v221h111v787h-111v221h433q196 0 307.5 -78t111.5 -229q0 -191 -184 -267q236 -68 236 -297q0 -169 -124 -263.5t-347 -94.5h-433zM410 236h82q99 0 162 39t63 110q0 70 -60.5 104.5t-164.5 34.5h-82v-288zM410 758h61q88 0 141.5 31.5t53.5 91.5q0 112 -195 112 h-61v-235z" />
<glyph unicode="C" horiz-adv-x="1024" d="M66 614q0 120 36.5 235.5t100.5 207t161 147.5t209 56q118 0 205.5 -33t171.5 -111v-262h-231v141q-67 28 -127 28q-9 0 -19 -1q-68 -4 -120 -41.5t-82 -97t-45 -127.5t-15 -142t15 -142t45 -127.5t82 -96.5t120 -41h15q150 0 237 112l152 -176q-84 -93 -179.5 -133.5 t-224.5 -40.5q-93 0 -175 36.5t-142 99t-103.5 144.5t-65 175.5t-21.5 189.5z" />
<glyph unicode="D" horiz-adv-x="1183" d="M59 0v221h111v787h-111v221h498q154 0 282 -82.5t200 -218t77 -293.5v-22q0 -111 -37 -217q-41 -116 -114.5 -203t-180 -140t-227.5 -53h-498zM412 242h145q95 0 169 58q76 56 112 146q33 81 32 170v19q-3 93 -42 172.5t-110.5 129.5t-160.5 50h-145v-745z" />
<glyph unicode="E" horiz-adv-x="913" d="M59 0v221h111v787h-111v221h772v-242h-419v-221h358v-242h-358v-282h440v-242h-793z" />
<glyph unicode="F" horiz-adv-x="870" d="M59 0v221h111v787h-111v221h732v-242h-379v-242h358v-241h-358v-283h110v-221h-463z" />
<glyph unicode="G" horiz-adv-x="1146" d="M66 594v24q0 155 60 295q64 151 191 248t287 99h13q131 0 227 -38q102 -40 194 -137v-241h-241v135q-24 12 -37.5 18.5t-58 15.5t-97.5 9q-73 0 -132 -38t-94 -100t-52 -137q-15 -64 -15 -130v-23q4 -98 36.5 -184t100 -144.5t156.5 -58.5q114 0 193 110v287h241v-379 q-72 -123 -188 -189.5t-246 -66.5q-117 0 -218 52.5t-169 139.5t-108 199.5t-43 233.5z" />
<glyph unicode="H" horiz-adv-x="1216" d="M59 0v221h111v787h-111v221h463v-221h-110v-263h393v263h-111v221h463v-221h-110v-787h110v-221h-463v221h111v283h-393v-283h110v-221h-463z" />
<glyph unicode="I" horiz-adv-x="606" d="M70 0v221h110v787h-110v221h467v-221h-111v-787h111v-221h-467z" />
<glyph unicode="J" horiz-adv-x="614" d="M43 -131q152 116 152 303v836h-111v221h467v-221h-111v-836q0 -136 -45 -236.5t-147 -191.5z" />
<glyph unicode="K" horiz-adv-x="1134" d="M59 0v221h111v787h-111v221h353v-531l440 551l201 -110l-435 -504l502 -537l-211 -129l-497 588v-557h-353z" />
<glyph unicode="L" horiz-adv-x="860" d="M59 0v221h111v787h-111v221h463v-221h-110v-766h409v-242h-762z" />
<glyph unicode="M" horiz-adv-x="1433" d="M23 14l233 1215h221l246 -885l246 885h221l233 -1215l-241 -34l-113 843l-235 -823h-222l-235 823l-113 -843z" />
<glyph unicode="N" horiz-adv-x="1277" d="M49 0v221h111v1008h241l476 -811v811h352v-221h-111v-1008h-241l-476 811v-811h-352z" />
<glyph unicode="O" horiz-adv-x="1175" d="M68 614q0 122 36 237.5t101 207t164.5 146.5t216.5 55t216.5 -55t164.5 -146.5t101 -207t36 -237.5t-36 -237.5t-101 -206.5t-164.5 -146t-216.5 -55t-216.5 55t-164.5 146t-101 206.5t-36 237.5zM313 614q0 -108 27.5 -197t91 -149.5t154.5 -60.5q69 0 122.5 34.5 t85.5 92.5t48 129.5t16 150.5q0 108 -27.5 197.5t-90.5 150t-154 60.5t-154.5 -60.5t-91 -150t-27.5 -197.5z" />
<glyph unicode="P" horiz-adv-x="1024" d="M49 1008v221h426q127 0 238.5 -54t180.5 -154.5t69 -223.5t-69 -223.5t-180.5 -154.5t-238.5 -54h-74v-365h-241v1008h-111zM401 606h74q97 0 169.5 52t72.5 139q0 86 -72.5 138t-169.5 52h-74v-381z" />
<glyph unicode="Q" horiz-adv-x="1175" d="M70 614q0 122 36 237.5t101 207t164.5 146.5t216.5 55t216.5 -55t164.5 -146.5t101 -207t36 -237.5q0 -176 -71 -330.5t-199 -238.5l245 -246l-217 -106l-276 276q-117 0 -216.5 55t-164.5 146t-101 206.5t-36 237.5zM315 614q0 -108 27.5 -197t91 -149.5t154.5 -60.5 q69 0 122.5 34.5t85.5 92.5t48 129.5t16 150.5q0 108 -27.5 197.5t-90.5 150t-154 60.5t-154.5 -60.5t-91 -150t-27.5 -197.5z" />
<glyph unicode="R" horiz-adv-x="1015" d="M59 0v221h111v787h-111v221h426q119 0 223.5 -50.5t169 -144.5t64.5 -209q0 -106 -61 -202t-168 -146l325 -389l-207 -119l-358 453h-61v-422h-353zM412 664h73q82 0 146.5 44t64.5 117q0 77 -54.5 119.5t-156.5 42.5h-73v-323z" />
<glyph unicode="S" horiz-adv-x="901" d="M78 922q0 142 116 240t267 98q186 0 317 -134v-249h-231v139q-40 18 -86 18q-60 0 -98.5 -32.5t-38.5 -79.5q0 -24 8.5 -43.5t28.5 -36.5t36.5 -27.5t47.5 -27.5l6 -3t5 -3t5 -3l71 -41q62 -36 97.5 -59t77 -58t62.5 -69.5t35.5 -83.5t14.5 -109q0 -161 -120 -275 t-289 -114q-102 0 -178.5 29t-151.5 98v307h231v-178q51 -30 119 -30q60 0 101.5 42.5t41.5 100.5q0 56 -33.5 91t-99.5 73l-71 41q-128 73 -172 108q-98 81 -115 206q-4 31 -4 65z" />
<glyph unicode="T" horiz-adv-x="954" d="M39 987v242h876v-242h-317v-766h111v-221h-463v221h110v766h-317z" />
<glyph unicode="U" horiz-adv-x="1273" d="M47 1008v221h463v-221h-111v-406q0 -391 238 -391q237 0 237 391v406h-110v221h463v-221h-111v-496q0 -152 -60 -275.5t-170 -195.5t-249 -72t-249 72t-170 195.5t-60 275.5v496h-111z" />
<glyph unicode="V" horiz-adv-x="1155" d="M18 1200l242 60l318 -910l317 910l242 -60l-451 -1200h-217z" />
<glyph unicode="W" horiz-adv-x="1515" d="M8 1214l232 46l225 -875l184 844h221l185 -844l225 875l231 -46l-346 -1214h-221l-184 782l-185 -782h-221z" />
<glyph unicode="X" horiz-adv-x="1085" d="M14 80l379 538l-379 535l250 107l277 -453l276 453l250 -107l-379 -535l379 -538l-242 -111l-284 461l-285 -461z" />
<glyph unicode="Y" horiz-adv-x="1105" d="M23 1176l235 84l295 -541l295 541l235 -84l-407 -699v-256h110v-221h-467v221h111v256z" />
<glyph unicode="Z" horiz-adv-x="962" d="M57 0l455 993h-428v236h797l-463 -993h500v-236h-861z" />
<glyph unicode="[" horiz-adv-x="655" d="M82 -154v1690h397v-242h-155v-1206h155v-242h-397z" />
<glyph unicode="\" horiz-adv-x="847" d="M49 1225l232 63l516 -1288l-232 -63z" />
<glyph unicode="]" horiz-adv-x="655" d="M176 88h156v1206h-156v242h397v-1690h-397v242z" />
<glyph unicode="^" horiz-adv-x="819" d="M84 1292l326 326l325 -326l-102 -71l-223 172l-224 -172z" />
<glyph unicode="_" horiz-adv-x="1024" d="M0 0h1024v-225h-1024v225z" />
<glyph unicode="`" horiz-adv-x="536" d="M22 1466.5q-8 47.5 23 83.5q36 31 83.5 23t80.5 -41q25 -25 45 -64l111 -194l-43 -43l-195 110q-39 20 -64 45q-33 33 -41 80.5z" />
<glyph unicode="a" horiz-adv-x="987" d="M55 287q0 148 117.5 237.5t288.5 89.5h108q0 67 -38.5 105.5t-110.5 38.5q-96 0 -166 -49l-84 186q4 3 11.5 8.5t32.5 19t52.5 23.5t69 18.5t84.5 8.5q184 0 283.5 -103.5t99.5 -265.5v-198q0 -101 37.5 -175.5t117.5 -136.5l-196 -117q-41 28 -100 113q-4 -5 -11.5 -13 t-33 -29t-53.5 -37t-73 -29t-92 -13q-134 0 -239 91.5t-105 226.5zM293 287q0 -46 35.5 -73.5t79.5 -27.5q43 0 86.5 22.5t65.5 45.5l22 22q-13 78 -13 158h-108q-51 0 -87 -14.5t-52 -39t-22.5 -47t-6.5 -46.5z" />
<glyph unicode="b" horiz-adv-x="1136" d="M29 94q80 62 117.5 136.5t37.5 175.5v794h-106v213h340v-526q4 3 11.5 9t30.5 21t47 26t57.5 20.5t64.5 9.5q127 0 230.5 -70.5t159.5 -185t56 -246.5t-56 -246.5t-159.5 -185t-230.5 -70.5q-53 0 -103 13.5t-83.5 32.5t-59.5 37.5t-39 31.5l-12 14q-66 -90 -107 -121z M418 471q0 -106 58 -187t153 -81t152 80.5t57 187.5t-57 187.5t-152 80.5t-153 -81t-58 -187z" />
<glyph unicode="c" horiz-adv-x="913" d="M61 471q0 131 55 245t156.5 184.5t225.5 72.5h12q106 1 184 -33q84 -36 154 -117v-237h-213v106q-58 47 -137 47q-63 -1 -109.5 -41t-68 -99.5t-21.5 -127.5t21.5 -127.5t68.5 -100t109 -40.5q127 0 190 82l178 -142q-72 -93 -160 -135q-83 -40 -197 -39h-11 q-125 2 -226.5 73t-156 184.5t-54.5 244.5z" />
<glyph unicode="d" horiz-adv-x="1136" d="M61 471q0 132 56 246.5t160 185t231 70.5q49 0 102 -21.5t81 -43.5l28 -21v313h-107v213h340v-1007q0 -100 38 -175t118 -137l-197 -117q-16 12 -42.5 42.5t-44.5 54.5l-19 24q-4 -5 -12.5 -14t-37.5 -31t-61 -39t-82.5 -31t-103.5 -14q-127 0 -231 70.5t-160 185 t-56 246.5zM299 471q0 -107 57 -187.5t152 -80.5t153 81t58 187t-58 187t-153 81t-152 -80.5t-57 -187.5z" />
<glyph unicode="e" horiz-adv-x="921" d="M61 471q0 131 52 245t151 185.5t223 71.5q90 0 162 -35t114.5 -90t71.5 -122t38 -133q7 -54 7 -100v-19q-2 -54 -14 -85h-563q0 -72 55.5 -133t128.5 -61q44 0 82 9t61 22t39.5 26t23.5 22l7 9l156 -140q-5 -7 -15 -19t-45 -42t-74.5 -52.5t-103 -41.5t-131.5 -19 q-95 0 -176 42t-135 111.5t-84.5 160t-30.5 188.5zM313 573h316q0 20 -5.5 44t-19 54.5t-44 51t-73.5 20.5q-38 0 -69 -15t-50 -36t-32 -46t-18 -43.5t-5 -29.5z" />
<glyph unicode="f" horiz-adv-x="675" d="M47 709v233h164v107q0 149 87.5 256.5t233.5 138.5l134 -135q-99 -17 -160.5 -89t-61.5 -171v-107h185v-233h-185v-496h107v-213h-447v213h107v496h-164z" />
<glyph unicode="g" horiz-adv-x="1136" d="M61 471q0 132 56 246.5t160 185t231 70.5q53 0 103 -13.5t83.5 -32t59.5 -37.5t38 -32l13 -14q57 78 106 121l197 -117q-80 -62 -118 -136.5t-38 -174.5v-517q0 -126 -57.5 -236.5t-160 -177.5t-226.5 -67q-122 0 -211 41t-160 133l154 187q59 -127 204 -127h13 q93 4 152 76.5t59 170.5v35q-4 -3 -10.5 -9t-28.5 -21t-45.5 -26t-58 -20.5t-68.5 -9.5q-118 0 -222 70t-164.5 186t-60.5 246zM299 471q0 -107 57 -187.5t152 -80.5t153 81t58 187t-58 187t-153 81t-152 -80.5t-57 -187.5z" />
<glyph unicode="h" d="M63 0v213h107v987h-107v213h340v-594q5 6 13.5 17t36.5 38t57.5 48t73.5 38t88 17q126 0 205 -80.5t79 -210.5v-473h107v-213h-340v565q0 27 -0.5 41t-3 38t-9 38t-16.5 28.5t-27.5 21.5t-41.5 7q-49 0 -89.5 -20.5t-64 -50t-40 -59t-22.5 -49.5l-6 -21v-326h107v-213 h-447z" />
<glyph unicode="i" horiz-adv-x="567" d="M63 0v213h107v516h-107v213h340v-729h107v-213h-447zM127 1237q0 59 41.5 100t99.5 41q59 0 100.5 -41.5t41.5 -99.5t-41.5 -99.5t-100.5 -41.5q-58 0 -99.5 41t-41.5 100z" />
<glyph unicode="j" horiz-adv-x="522" d="M14 -360q80 62 118 136.5t38 174.5v778h-107v213h340v-991q0 -136 -45 -236.5t-147 -191.5zM125 1237q0 59 41.5 100t99.5 41q59 0 100.5 -41.5t41.5 -99.5t-41.5 -99.5t-100.5 -41.5q-58 0 -99.5 41t-41.5 100z" />
<glyph unicode="k" horiz-adv-x="1007" d="M63 0v213h107v987h-107v213h340v-827l353 387l209 -119l-385 -354l438 -408l-213 -123l-402 437v-406h-340z" />
<glyph unicode="l" horiz-adv-x="565" d="M63 0v213h107v987h-107v213h340v-1200h107v-213h-447z" />
<glyph unicode="m" horiz-adv-x="1626" d="M29 848l196 117q26 -19 56 -54.5t47 -61.5l16 -26l16.5 16.5t43 37t64 47t75 37t80.5 16.5q44 0 84.5 -14.5t67.5 -35t47.5 -42.5t30 -37t9.5 -19l16 16t41.5 35.5t62.5 45t73.5 35.5t79.5 16q127 0 217 -81t90 -208v-475h106v-213h-340v578q0 24 -0.5 36.5t-3 33.5 t-8.5 33t-16 25t-26.5 19t-39.5 6q-27 0 -56.5 -16.5t-51 -40.5t-39.5 -48t-27 -40l-10 -17v-356h106v-213h-340v578q0 24 -0.5 36.5t-3 33.5t-8.5 33t-16 25t-26.5 19t-39.5 6q-27 0 -56.5 -16.5t-51 -40.5t-39.5 -48t-27 -40l-10 -17v-356h106v-213h-446v213h106v324 q0 100 -37.5 174.5t-117.5 136.5z" />
<glyph unicode="n" horiz-adv-x="1155" d="M29 848l196 117q20 -15 49.5 -50t49.5 -63l20 -27q6 6 17 16.5t45 36.5t69 46t84.5 36.5t95.5 16.5q129 0 222.5 -83t93.5 -210v-471h106v-213h-340v573q0 26 -2 46t-9 42t-19 36.5t-33.5 24t-50.5 9.5q-35 0 -69 -18t-57.5 -44t-42 -52t-27.5 -44l-9 -18v-342h106v-213 h-446v213h106v324q0 100 -37.5 174.5t-117.5 136.5z" />
<glyph unicode="o" horiz-adv-x="1015" d="M61 471q0 132 56 246.5t160 185t231 70.5t230.5 -70.5t159.5 -185t56 -246.5t-56 -246.5t-159.5 -185t-230.5 -70.5t-231 70.5t-160 185t-56 246.5zM299 471q0 -107 57 -187.5t152 -80.5t152 80.5t57 187.5t-57 187.5t-152 80.5t-152 -80.5t-57 -187.5z" />
<glyph unicode="p" horiz-adv-x="1134" d="M29 848l196 117q16 -13 43 -43t46 -54l18 -24q4 5 12.5 14t37.5 31t61 39t82.5 31t103.5 14q127 0 230.5 -70.5t159.5 -185t56 -246.5q0 -130 -60.5 -246t-164 -186t-221.5 -70q-55 0 -107.5 21.5t-77.5 43.5l-26 21v-506h-234v988q0 100 -37.5 174.5t-117.5 136.5z M418 471q0 -106 58 -187t153 -81t152 80.5t57 187.5t-57 187.5t-152 80.5t-153 -81t-58 -187z" />
<glyph unicode="q" horiz-adv-x="1134" d="M61 471q0 132 56 246.5t160 185t231 70.5q53 0 103 -13.5t83.5 -32t59.5 -37.5t38 -32l13 -14q72 95 106 121l197 -117q-80 -62 -118 -136.5t-38 -174.5v-988h-233v506q-4 -3 -11 -9t-29 -21t-45.5 -26t-58 -20.5t-67.5 -9.5q-118 0 -222 70t-164.5 186t-60.5 246z M299 471q0 -107 57 -187.5t152 -80.5t153 81t58 187t-58 187t-153 81t-152 -80.5t-57 -187.5z" />
<glyph unicode="r" horiz-adv-x="712" d="M29 848l196 117q29 -22 74 -77.5t45 -62.5q6 6 17.5 16t46 35.5t68 45t79 35.5t84.5 16l45 -244q-36 0 -76.5 -18t-72.5 -43.5t-59.5 -51t-42.5 -43.5l-15 -18v-342h106v-213h-446v213h106v324q0 100 -37.5 174.5t-117.5 136.5z" />
<glyph unicode="s" horiz-adv-x="815" d="M80 686q0 125 99.5 206t228.5 81q92 0 168.5 -32.5t128.5 -80.5v-231h-209v112q-39 17 -78 17q-49 0 -81 -18t-32 -54q0 -16 9.5 -29.5t27.5 -24t33.5 -18t40 -17t33.5 -13.5l92 -41q42 -18 72.5 -39.5t57 -52.5t40.5 -75t14 -100q0 -129 -108 -218t-250 -89 q-156 0 -281 94v244h209v-106q49 -21 82 -21q60 0 91.5 23.5t31.5 62.5q0 53 -133 113l-93 41q-58 26 -97 55t-68 83.5t-29 127.5z" />
<glyph unicode="t" horiz-adv-x="686" d="M47 709v233h174v287h234v-287h184v-233h-184v-316q0 -100 37.5 -174.5t117.5 -136.5l-196 -117q-102 91 -147.5 191.5t-45.5 236.5v316h-174z" />
<glyph unicode="u" horiz-adv-x="1110" d="M53 729v213h340v-573q0 -21 1 -36t6.5 -40t15.5 -41t30.5 -28.5t49.5 -12.5q46 0 83.5 18t57.5 44t33.5 52t17.5 44l4 18v342h-106v213h340v-536q0 -101 37.5 -175.5t117.5 -136.5l-196 -117q-14 9 -43 43t-52 64l-22 29q-6 -6 -16.5 -16t-43.5 -35.5t-67 -45t-83 -35.5 t-95 -16q-118 0 -210.5 83.5t-92.5 209.5v471h-107z" />
<glyph unicode="v" horiz-adv-x="1011" d="M33 897l233 66l240 -631l239 631l234 -66l-379 -897h-188z" />
<glyph unicode="w" horiz-adv-x="1482" d="M43 897l223 66l199 -590l205 549h147l205 -549l199 590l223 -66l-342 -897h-160l-199 457l-198 -457h-160z" />
<glyph unicode="x" horiz-adv-x="983" d="M43 76l297 399l-297 395l246 103l200 -328l201 328l246 -103l-297 -395l297 -399l-238 -107l-209 336l-208 -336z" />
<glyph unicode="y" horiz-adv-x="1003" d="M33 897l233 66l240 -631l239 631l234 -66l-584 -1378l-205 67l195 477z" />
<glyph unicode="z" horiz-adv-x="839" d="M37 0l379 713h-359v229h725l-379 -713h379v-229h-745z" />
<glyph unicode="{" horiz-adv-x="716" d="M41 686l233 234q-8 192 -8 204q0 259 262 424l146 -141q-13 -12 -40 -38.5t-35 -35t-27.5 -29.5t-24.5 -30.5t-16.5 -30t-14.5 -37t-8 -41.5t-5.5 -53t-0.5 -63l2 -201l-162 -162l162 -162q-2 -188 -2 -200q0 -32 1.5 -58.5t3 -47t8 -41t9.5 -33.5t15 -31t17 -26.5 t23.5 -27.5t26 -27t32.5 -32t36 -35l-146 -141q-262 165 -262 424l8 205z" />
<glyph unicode="|" horiz-adv-x="681" d="M217 0v1534h197v-1534h-197z" />
<glyph unicode="}" horiz-adv-x="716" d="M43 -35q11 11 36 35t32.5 32t26 27t23.5 27.5t17 26.5t15 31t9.5 33.5t8 41t3 47t1.5 58.5l-2 200l162 162l-162 162q2 189 2 201q0 35 -0.5 63t-5.5 53t-8 41.5t-14.5 37t-16.5 30t-24.5 30.5t-27.5 29.5t-35 35t-40 38.5l145 141q263 -166 263 -424l-9 -204l234 -234 l-234 -233q9 -193 9 -205q0 -258 -263 -424z" />
<glyph unicode="~" horiz-adv-x="829" d="M123 870q27 72 80 113.5t125 40.5q27 -1 52.5 -15.5t45 -33t39 -36.5t43.5 -26.5t51 -1.5q66 18 103 93l45 -113q-27 -72 -80 -113.5t-125 -40.5q-33 1 -65 22.5t-53 45.5t-51.5 39t-62.5 6q-66 -18 -102 -92z" />
<glyph unicode="&#xa1;" horiz-adv-x="655" d="M162 1092q0 64 45 109.5t110 45.5t110.5 -45.5t45.5 -109.5t-45.5 -110t-110.5 -46q-64 0 -109.5 45.5t-45.5 110.5zM190 -195v1018h254v-1018h-254z" />
<glyph unicode="&#xa2;" horiz-adv-x="991" d="M76 696q0 167 81 292.5t234 191.5v213h242v-205q69 -14 134.5 -56.5t113.5 -107.5l-199 -141q-62 82 -170 82q-62 0 -109 -40.5t-68.5 -100.5t-21.5 -128t21.5 -127.5t68.5 -100t109 -40.5q108 0 170 82l199 -141q-48 -66 -114.5 -109t-133.5 -55v-205h-242v215 q-315 137 -315 481z" />
<glyph unicode="&#xa3;" horiz-adv-x="819" d="M37 487v254h153v123q0 152 96 263t246 133l134 -156q-96 -9 -159 -77t-63 -163v-123h246v-254h-246v-233h359v-254h-613v487h-153z" />
<glyph unicode="&#xa5;" horiz-adv-x="1105" d="M23 1176l235 84l295 -541l295 541l235 -84l-407 -699h211v-246h-211v-231h-246v231h-209v246h209z" />
<glyph unicode="&#xa6;" horiz-adv-x="681" d="M217 0v686h197v-686h-197zM217 856v678h197v-678h-197z" />
<glyph unicode="&#xa8;" horiz-adv-x="741" d="M0 1350q0 49 34.5 83.5t84.5 34.5t84.5 -34.5t34.5 -83.5q0 -50 -35 -84.5t-84 -34.5t-84 34.5t-35 84.5zM381 1348q0 49 34.5 83.5t84.5 34.5t84 -34t34 -84t-34.5 -84.5t-83.5 -34.5q-50 0 -84.5 34.5t-34.5 84.5z" />
<glyph unicode="&#xa9;" horiz-adv-x="1269" d="M27 596q0 165 81.5 305t221.5 221.5t305 81.5t305 -81.5t221.5 -221.5t81.5 -305t-81.5 -305t-221.5 -221.5t-305 -81.5t-305 81.5t-221.5 221.5t-81.5 305zM184 596q0 -186 132.5 -318.5t318.5 -132.5t318 132.5t132 318.5t-132 318.5t-318 132.5t-318.5 -132.5 t-132.5 -318.5zM371 604q0 128 77 228t189 100q76 0 119.5 -20t83.5 -58v-143h-138v82l-4 1q-3 0 -8 1t-13 1.5t-17.5 1t-22.5 -0.5q-60 -6 -88.5 -62t-28.5 -131q0 -48 10.5 -89t38 -71.5t68.5 -31.5q86 -3 127 61l88 -104q-83 -96 -215 -93q-82 2 -144 50t-92 121t-30 157 z" />
<glyph unicode="&#xab;" horiz-adv-x="1105" d="M102 594l269 395l192 -102l-205 -293l205 -297l-184 -107zM516 594l268 395l193 -102l-205 -293l205 -297l-184 -107z" />
<glyph unicode="&#xad;" horiz-adv-x="860" d="M135 549v254h553v-254h-553z" />
<glyph unicode="&#xae;" horiz-adv-x="1269" d="M27 596q0 165 81.5 305t221.5 221.5t305 81.5t305 -81.5t221.5 -221.5t81.5 -305t-81.5 -305t-221.5 -221.5t-305 -81.5t-305 81.5t-221.5 221.5t-81.5 305zM184 596q0 -186 132.5 -318.5t318.5 -132.5t318 132.5t132 318.5t-132 318.5t-318 132.5t-318.5 -132.5 t-132.5 -318.5zM399 299v125h64v364h-64v125h234q97 0 169.5 -57.5t71.5 -146.5q0 -113 -102 -170l164 -195l-129 -65l-174 223h-23v-203h-211zM610 639h23q36 0 64 19t28 51q0 34 -21 50.5t-71 16.5h-23v-137z" />
<glyph unicode="&#xaf;" horiz-adv-x="614" d="M123 1505v144h409v-144h-409z" />
<glyph unicode="&#xb0;" horiz-adv-x="870" d="M123 946q0 129 92 221.5t221 92.5t221.5 -92.5t92.5 -221.5t-92.5 -221t-221.5 -92t-221 92t-92 221zM287 946q0 -62 43.5 -105.5t105.5 -43.5t106 44t44 105q0 62 -44 106t-106 44q-61 0 -105 -44t-44 -106z" />
<glyph unicode="&#xb2;" horiz-adv-x="880" d="M162 1118q5 5 13.5 13t35.5 28.5t54 36t66.5 28.5t76.5 13q110 0 169.5 -59t59.5 -158q0 -53 -21 -98.5t-55 -81t-70.5 -67.5t-75.5 -73t-61 -82h287v-167h-475v63q0 75 31.5 144t76 118t89.5 91t76.5 78.5t31.5 64.5q0 55 -80 55q-28 0 -63.5 -20.5t-56.5 -40.5l-21 -21 z" />
<glyph unicode="&#xb3;" horiz-adv-x="733" d="M88 1139l11.5 11.5t31 26t47 33t56.5 26t63 11.5q111 0 184.5 -58.5t73.5 -156.5q0 -99 -96 -153q131 -58 131 -181q0 -47 -15.5 -85.5t-42 -64t-60.5 -45.5t-72 -31t-75.5 -18t-71.5 -9t-60.5 -2.5t-42.5 0.5l-15 1v162q12 -1 31 -1.5t68.5 2.5t87.5 11t69 28.5t31 51.5 q0 29 -18.5 49t-53 29.5t-70.5 13t-85 3.5v157q75 0 132.5 18t57.5 56q0 27 -18.5 42t-69.5 15q-34 0 -64.5 -18.5t-44.5 -36.5l-14 -18z" />
<glyph unicode="&#xb4;" horiz-adv-x="536" d="M47 1278l111 195q19 37 45 63q33 33 80.5 41t83.5 -23q31 -37 23 -83t-42 -80q-26 -26 -63 -45l-195 -111z" />
<glyph unicode="&#xb6;" horiz-adv-x="1187" d="M78 889q0 87 33.5 164t98.5 126.5t148 49.5h633v-1016h107v-213h-342v987h-164v-987h-340v213h106v334q-126 23 -203 118t-77 224z" />
<glyph unicode="&#xb8;" horiz-adv-x="516" d="M51 -184l256 256l123 -41l-123 -123q67 -5 115.5 -44.5t48.5 -99.5q0 -82 -87.5 -133t-209.5 -51h-31v92h31q129 0 129 72q0 39 -37.5 55.5t-89.5 16.5h-125z" />
<glyph unicode="&#xb9;" horiz-adv-x="634" d="M211 498v731h172v-731h-172z" />
<glyph unicode="&#xbb;" horiz-adv-x="1105" d="M129 297l205 297l-205 293l193 102l268 -395l-277 -404zM543 297l205 297l-205 293l192 102l269 -395l-277 -404z" />
<glyph unicode="&#xbc;" horiz-adv-x="1552" d="M211 498v731h172v-731h-172zM313 0l516 1288l191 -63l-516 -1288zM831 170l70 149q103 233 103 418v27h167v-27q0 -80 -25.5 -199.5t-55.5 -197.5h116v109h168v-109h90v-170h-90v-172h-168v172h-375z" />
<glyph unicode="&#xbd;" horiz-adv-x="1576" d="M211 498v731h172v-731h-172zM313 0l516 1288l191 -63l-516 -1288zM924 659q5 5 13.5 13t35 28.5t54 36t66.5 28.5t76 13q110 0 170 -59t60 -158q0 -53 -21 -98t-55 -81t-70.5 -67.5t-75.5 -72.5t-61 -82h287v-168h-475v63q0 75 31.5 144t76 118t89.5 91t76.5 78.5 t31.5 64.5q0 55 -80 55q-28 0 -63.5 -20.5t-56.5 -41.5l-21 -20z" />
<glyph unicode="&#xbe;" horiz-adv-x="1740" d="M88 1139l11.5 11.5t31 26t47 33t56.5 26t63 11.5q111 0 184.5 -58.5t73.5 -156.5q0 -99 -96 -153q131 -58 131 -181q0 -47 -15.5 -85.5t-42 -64t-60.5 -45.5t-72 -31t-75.5 -18t-71.5 -9t-60.5 -2.5t-42.5 0.5l-15 1v162q12 -1 31 -1.5t68.5 2.5t87.5 11t69 28.5t31 51.5 q0 29 -18.5 49t-53 29.5t-70.5 13t-85 3.5v157q75 0 132.5 18t57.5 56q0 27 -18.5 42t-69.5 15q-34 0 -64.5 -18.5t-44.5 -36.5l-14 -18zM451 0l516 1288l190 -63l-516 -1288zM969 170l69 149q103 233 103 418v27h168v-27q0 -80 -26 -199.5t-56 -197.5h116v109h168v-109h91 v-170h-91v-172h-168v172h-374z" />
<glyph unicode="&#xbf;" horiz-adv-x="950" d="M25 195q-9 172 99.5 301t278.5 149v178h234v-415h-131q-62 0 -118 -27t-90 -77t-28 -109q7 -77 68 -119.5t151 -52.5q76 -8 161.5 25t131.5 106l142 -181q-83 -103 -187 -145.5t-248 -42.5q-116 0 -219.5 51t-171 146.5t-73.5 212.5zM365 1102q0 64 45.5 109.5 t109.5 45.5q65 0 110.5 -45.5t45.5 -109.5t-46 -110t-110 -46t-109.5 45.5t-45.5 110.5z" />
<glyph unicode="&#xc0;" d="M25 25l440 1204h197l440 -1204l-242 -56l-82 254h-428l-84 -254zM362 1639q-8 47 23 83q36 31 83.5 23t80.5 -41q25 -25 45 -64l111 -194l-43 -43l-195 110q-37 19 -64 46q-33 33 -41 80zM428 465h270l-135 414z" />
<glyph unicode="&#xc1;" d="M25 25l440 1204h197l440 -1204l-242 -56l-82 254h-428l-84 -254zM428 465h270l-135 414zM444 1434l111 194q20 39 45 64q33 33 80.5 41t83.5 -23q31 -37 23 -83.5t-42 -80.5q-26 -26 -63 -45l-195 -110z" />
<glyph unicode="&#xc2;" d="M25 25l440 1204h197l440 -1204l-242 -56l-82 254h-428l-84 -254zM231 1460l326 326l326 -326l-103 -71l-223 172l-223 -172zM428 465h270l-135 414z" />
<glyph unicode="&#xc3;" d="M25 25l440 1204h197l440 -1204l-242 -56l-82 254h-428l-84 -254zM266 1520q27 72 79.5 113t125.5 40q33 -1 64.5 -22t52.5 -45t51.5 -39t62.5 -6q67 18 103 92l45 -113q-27 -72 -80 -113.5t-125 -40.5q-27 1 -52.5 15.5t-45 33t-39 36.5t-43.5 26.5t-51 1.5 q-67 -18 -103 -92zM428 465h270l-135 414z" />
<glyph unicode="&#xc4;" d="M25 25l440 1204h197l440 -1204l-242 -56l-82 254h-428l-84 -254zM268 1503q0 49 35 84t84 35t84 -35t35 -84t-35 -84t-84 -35t-84 35t-35 84zM428 465h270l-135 414zM649 1501q0 49 34.5 84t84.5 35t84.5 -35t34.5 -84t-34.5 -84t-84.5 -35t-84.5 35t-34.5 84z" />
<glyph unicode="&#xc5;" d="M25 25l440 1204h197l440 -1204l-242 -56l-82 254h-428l-84 -254zM348 1538q0 92 65.5 157.5t157.5 65.5t158 -65.5t66 -157.5t-66 -157.5t-158 -65.5t-157.5 65.5t-65.5 157.5zM428 465h270l-135 414zM469 1538q0 -41 30.5 -71.5t71.5 -30.5t72 30.5t31 71.5t-31 71.5 t-72 30.5t-71.5 -30.5t-30.5 -71.5z" />
<glyph unicode="&#xc6;" horiz-adv-x="1515" d="M51 63l703 1166h651v-242h-410v-221h348v-242h-348v-282h430v-242h-671v223h-348l-162 -284zM543 465h211v366z" />
<glyph unicode="&#xc7;" horiz-adv-x="1024" d="M66 614q0 120 36.5 235.5t100.5 207t161 147.5t209 56q118 0 205.5 -33t171.5 -111v-262h-231v141q-77 32 -146 27q-68 -4 -120 -41.5t-82 -97t-45 -127.5t-15 -142t15 -142t45 -127.5t82 -96.5t120 -41q161 -6 252 112l152 -176q-76 -85 -163 -126t-198 -46l-63 -63 q67 -5 115.5 -44.5t48.5 -99.5q0 -82 -87.5 -133t-209.5 -51h-31v92h31q129 0 129 72q0 39 -37.5 55.5t-89.5 16.5h-125l168 168q-123 30 -215.5 128t-138 228.5t-45.5 273.5z" />
<glyph unicode="&#xc8;" horiz-adv-x="913" d="M59 0v221h111v787h-111v221h772v-242h-419v-221h358v-242h-358v-282h440v-242h-793zM284 1634.5q-8 46.5 23 83.5q36 31 83.5 23t80.5 -41q25 -25 45 -64l111 -194l-43 -43l-195 110q-37 19 -63 45q-34 34 -42 80.5z" />
<glyph unicode="&#xc9;" horiz-adv-x="913" d="M59 0v221h111v787h-111v221h772v-242h-419v-221h358v-242h-358v-282h440v-242h-793zM307 1436l111 194q20 39 45 64q33 33 80.5 41t83.5 -23q31 -37 23 -83.5t-42 -80.5q-26 -26 -63 -45l-195 -110z" />
<glyph unicode="&#xca;" horiz-adv-x="913" d="M59 0v221h111v787h-111v221h772v-242h-419v-221h358v-242h-358v-282h440v-242h-793zM119 1464l325 326l326 -326l-102 -71l-224 172l-223 -172z" />
<glyph unicode="&#xcb;" horiz-adv-x="913" d="M59 0v221h111v787h-111v221h772v-242h-419v-221h358v-242h-358v-282h440v-242h-793zM160 1511q0 49 35 84t84 35t83.5 -34.5t34.5 -84.5q0 -49 -34.5 -83.5t-83.5 -34.5q-50 0 -84.5 34.5t-34.5 83.5zM541 1509q0 50 34.5 84.5t83.5 34.5t84 -35t35 -84t-34.5 -83.5 t-84.5 -34.5q-49 0 -83.5 34.5t-34.5 83.5z" />
<glyph unicode="&#xcc;" horiz-adv-x="606" d="M64.5 1643q-7.5 47 23.5 83q36 31 83.5 23t80.5 -41q26 -26 45 -63l111 -195l-43 -43l-195 111q-39 20 -64 45q-34 33 -41.5 80zM70 0v221h110v787h-110v221h467v-221h-111v-787h111v-221h-467z" />
<glyph unicode="&#xcd;" horiz-adv-x="606" d="M70 0v221h110v787h-110v221h467v-221h-111v-787h111v-221h-467zM127 1434l111 194q20 39 45 64q33 34 80 41.5t83 -23.5q31 -36 23 -83.5t-41 -80.5q-26 -26 -63 -45l-195 -110z" />
<glyph unicode="&#xce;" horiz-adv-x="606" d="M-31 1464l326 326l326 -326l-103 -71l-223 172l-223 -172zM70 0v221h110v787h-110v221h467v-221h-111v-787h111v-221h-467z" />
<glyph unicode="&#xcf;" horiz-adv-x="606" d="M-10 1511q0 49 35 84t84 35t83.5 -34.5t34.5 -84.5q0 -49 -34.5 -83.5t-83.5 -34.5q-50 0 -84.5 34.5t-34.5 83.5zM70 0v221h110v787h-110v221h467v-221h-111v-787h111v-221h-467zM371 1509q0 50 34.5 84.5t83.5 34.5t84 -35t35 -84t-34.5 -83.5t-84.5 -34.5 q-49 0 -83.5 34.5t-34.5 83.5z" />
<glyph unicode="&#xd0;" horiz-adv-x="1245" d="M74 500v254h155v254h-110v221h497q154 0 282 -82.5t200.5 -218t77.5 -293.5q5 -164 -65.5 -309.5t-202.5 -235.5t-292 -90h-497v221h110v279h-155zM471 242h145q142 0 231 119.5t83 273.5q-5 143 -92.5 247.5t-221.5 104.5h-145v-233h156v-254h-156v-258z" />
<glyph unicode="&#xd1;" horiz-adv-x="1277" d="M49 0v221h111v1008h241l476 -811v811h352v-221h-111v-1008h-241l-476 811v-811h-352zM334 1520q27 72 79.5 113t125.5 40q33 -1 64.5 -22t52.5 -45t51.5 -39t62.5 -6q66 18 102 92l46 -113q-27 -72 -80 -113.5t-125 -40.5q-33 1 -65 22.5t-53 45.5t-51.5 39t-62.5 6 q-66 -18 -102 -92z" />
<glyph unicode="&#xd2;" horiz-adv-x="1175" d="M68 614q0 122 36 237.5t101 207t164.5 146.5t216.5 55t216.5 -55t164.5 -146.5t101 -207t36 -237.5t-36 -237.5t-101 -206.5t-164.5 -146t-216.5 -55t-216.5 55t-164.5 146t-101 206.5t-36 237.5zM313 614q0 -108 27.5 -197t91 -149.5t154.5 -60.5q69 0 122.5 34.5 t85.5 92.5t48 129.5t16 150.5q0 108 -27.5 197.5t-90.5 150t-154 60.5t-154.5 -60.5t-91 -150t-27.5 -197.5zM398.5 1639q-7.5 47 23.5 83q36 31 83.5 23t80.5 -41q25 -25 45 -64l110 -194l-43 -43l-194 110q-37 19 -64 46q-34 33 -41.5 80z" />
<glyph unicode="&#xd3;" horiz-adv-x="1175" d="M68 614q0 122 36 237.5t101 207t164.5 146.5t216.5 55t216.5 -55t164.5 -146.5t101 -207t36 -237.5t-36 -237.5t-101 -206.5t-164.5 -146t-216.5 -55t-216.5 55t-164.5 146t-101 206.5t-36 237.5zM313 614q0 -108 27.5 -197t91 -149.5t154.5 -60.5q69 0 122.5 34.5 t85.5 92.5t48 129.5t16 150.5q0 108 -27.5 197.5t-90.5 150t-154 60.5t-154.5 -60.5t-91 -150t-27.5 -197.5zM442 1438l111 194q20 39 45 64q33 33 80.5 41t83.5 -23q31 -37 23 -83.5t-42 -80.5q-26 -26 -63 -45l-195 -110z" />
<glyph unicode="&#xd4;" horiz-adv-x="1175" d="M68 614q0 122 36 237.5t101 207t164.5 146.5t216.5 55t216.5 -55t164.5 -146.5t101 -207t36 -237.5t-36 -237.5t-101 -206.5t-164.5 -146t-216.5 -55t-216.5 55t-164.5 146t-101 206.5t-36 237.5zM246 1462l325 326l326 -326l-102 -71l-224 172l-223 -172zM313 614 q0 -108 27.5 -197t91 -149.5t154.5 -60.5q69 0 122.5 34.5t85.5 92.5t48 129.5t16 150.5q0 108 -27.5 197.5t-90.5 150t-154 60.5t-154.5 -60.5t-91 -150t-27.5 -197.5z" />
<glyph unicode="&#xd5;" horiz-adv-x="1175" d="M68 614q0 122 36 237.5t101 207t164.5 146.5t216.5 55t216.5 -55t164.5 -146.5t101 -207t36 -237.5t-36 -237.5t-101 -206.5t-164.5 -146t-216.5 -55t-216.5 55t-164.5 146t-101 206.5t-36 237.5zM281 1524q27 72 79.5 113t124.5 40q27 -1 52.5 -15t45 -33t39.5 -36.5 t44 -26t51 -1.5q66 18 102 92l45 -113q-27 -72 -79.5 -113t-125.5 -40q-33 1 -64.5 22t-52.5 45t-51.5 39t-62.5 6q-66 -18 -102 -92zM313 614q0 -108 27.5 -197t91 -149.5t154.5 -60.5q69 0 122.5 34.5t85.5 92.5t48 129.5t16 150.5q0 108 -27.5 197.5t-90.5 150t-154 60.5 t-154.5 -60.5t-91 -150t-27.5 -197.5z" />
<glyph unicode="&#xd6;" horiz-adv-x="1175" d="M68 614q0 122 36 237.5t101 207t164.5 146.5t216.5 55t216.5 -55t164.5 -146.5t101 -207t36 -237.5t-36 -237.5t-101 -206.5t-164.5 -146t-216.5 -55t-216.5 55t-164.5 146t-101 206.5t-36 237.5zM279 1503q0 50 34.5 84.5t83.5 34.5t84 -35t35 -84t-35 -84t-84 -35 t-83.5 34.5t-34.5 84.5zM313 614q0 -108 27.5 -197t91 -149.5t154.5 -60.5q69 0 122.5 34.5t85.5 92.5t48 129.5t16 150.5q0 108 -27.5 197.5t-90.5 150t-154 60.5t-154.5 -60.5t-91 -150t-27.5 -197.5zM659 1501q0 49 34.5 84t84.5 35t84.5 -35t34.5 -84t-34.5 -84 t-84.5 -35t-84.5 35t-34.5 84z" />
<glyph unicode="&#xd7;" horiz-adv-x="983" d="M84 416l297 272l-297 268l246 111l159 -209l160 209l246 -111l-297 -268l297 -272l-238 -115l-168 217l-167 -217z" />
<glyph unicode="&#xd8;" horiz-adv-x="1191" d="M37 164l115 129q-66 150 -66 321q0 122 36 237.5t101 207t164.5 146.5t216.5 55q176 0 309 -123l84 92l156 -139l-113 -123q82 -164 82 -353q0 -122 -36 -237.5t-101 -206.5t-164.5 -146t-216.5 -55q-191 0 -334 146l-80 -90zM332 614q0 -20 4 -58t4 -56l418 463 q-62 59 -154 59q-91 0 -154 -60.5t-90.5 -150t-27.5 -197.5zM428 289q69 -82 176 -82q91 0 154.5 60.5t91 149.5t27.5 197q0 69 -17 152z" />
<glyph unicode="&#xd9;" horiz-adv-x="1273" d="M47 1008v221h463v-221h-111v-406q0 -391 238 -391q237 0 237 391v406h-110v221h463v-221h-111v-496q0 -152 -60 -275.5t-170 -195.5t-249 -72t-249 72t-170 195.5t-60 275.5v496h-111zM358 1639q-8 47 23 83q36 31 83.5 23t80.5 -41q25 -25 45 -64l110 -194l-43 -43 l-194 110q-37 19 -64 46q-33 33 -41 80z" />
<glyph unicode="&#xda;" horiz-adv-x="1273" d="M47 1008v221h463v-221h-111v-406q0 -391 238 -391q237 0 237 391v406h-110v221h463v-221h-111v-496q0 -152 -60 -275.5t-170 -195.5t-249 -72t-249 72t-170 195.5t-60 275.5v496h-111zM498 1434l110 194q20 39 45 64q33 33 80.5 41t83.5 -23q31 -36 23 -83.5t-41 -80.5 q-25 -25 -64 -45l-194 -110z" />
<glyph unicode="&#xdb;" horiz-adv-x="1273" d="M47 1008v221h463v-221h-111v-406q0 -391 238 -391q237 0 237 391v406h-110v221h463v-221h-111v-496q0 -152 -60 -275.5t-170 -195.5t-249 -72t-249 72t-170 195.5t-60 275.5v496h-111zM299 1464l326 326l325 -326l-102 -71l-223 172l-224 -172z" />
<glyph unicode="&#xdc;" horiz-adv-x="1273" d="M47 1008v221h463v-221h-111v-406q0 -391 238 -391q237 0 237 391v406h-110v221h463v-221h-111v-496q0 -152 -60 -275.5t-170 -195.5t-249 -72t-249 72t-170 195.5t-60 275.5v496h-111zM340 1513q0 49 35 84t84 35t84 -35t35 -84t-34.5 -83.5t-84.5 -34.5t-84.5 34.5 t-34.5 83.5zM721 1511q0 49 34.5 84t84.5 35q49 0 83.5 -34.5t34.5 -84.5q0 -49 -34 -83.5t-84 -34.5t-84.5 34.5t-34.5 83.5z" />
<glyph unicode="&#xdd;" horiz-adv-x="1105" d="M23 1176l235 84l295 -541l295 541l235 -84l-407 -699v-256h110v-221h-467v221h111v256zM444 1427l111 195q20 39 45 64q33 33 80.5 41t83.5 -23q31 -37 23 -83.5t-42 -80.5q-26 -26 -63 -45l-195 -111z" />
<glyph unicode="&#xde;" horiz-adv-x="983" d="M119 0v1229h241v-174h74q127 0 238.5 -54t180.5 -154.5t69 -223.5t-69 -223.5t-180.5 -155t-238.5 -54.5h-74v-190h-241zM360 432h74q97 0 169.5 52t72.5 139q0 86 -72.5 138t-169.5 52h-74v-381z" />
<glyph unicode="&#xdf;" horiz-adv-x="1085" d="M49 0v221h111v692q0 148 116 247.5t273 101.5q104 1 196 -42.5t149.5 -125t57.5 -181.5q0 -83 -51 -144t-137 -97q117 -37 183.5 -118.5t66.5 -203.5q0 -117 -69.5 -203t-173.5 -126.5t-224 -40.5q-7 0 -64 10l19 229q3 0 18.5 -3t26.5 -3q107 0 160.5 31t68.5 106 q12 60 -27.5 108t-102.5 71.5t-130 23.5h-29v213l17 2q39 5 61 8.5t54.5 13.5t49.5 24t31 39.5t15 59.5q1 54 -50 83.5t-116 27.5q-63 -1 -107.5 -47t-44.5 -109v-868h-348z" />
<glyph unicode="&#xe0;" horiz-adv-x="987" d="M55 287q0 148 117.5 237.5t288.5 89.5h108q0 67 -38.5 105.5t-110.5 38.5q-96 0 -166 -49l-84 186q4 3 11.5 8.5t32.5 19t52.5 23.5t69 18.5t84.5 8.5q184 0 283.5 -103.5t99.5 -265.5v-198q0 -101 37.5 -175.5t117.5 -136.5l-196 -117q-41 28 -100 113q-4 -5 -11.5 -13 t-33 -29t-53.5 -37t-73 -29t-92 -13q-134 0 -239 91.5t-105 226.5zM253 1354.5q-8 46.5 23 83.5q37 31 83.5 23t80.5 -42q26 -26 45 -63l111 -195l-43 -43l-195 111q-37 19 -63 45q-34 34 -42 80.5zM293 287q0 -46 35.5 -73.5t79.5 -27.5q43 0 86.5 22.5t65.5 45.5l22 22 q-13 78 -13 158h-108q-51 0 -87 -14.5t-52 -39t-22.5 -47t-6.5 -46.5z" />
<glyph unicode="&#xe1;" horiz-adv-x="987" d="M55 287q0 148 117.5 237.5t288.5 89.5h108q0 67 -38.5 105.5t-110.5 38.5q-96 0 -166 -49l-84 186q4 3 11.5 8.5t32.5 19t52.5 23.5t69 18.5t84.5 8.5q184 0 283.5 -103.5t99.5 -265.5v-198q0 -101 37.5 -175.5t117.5 -136.5l-196 -117q-41 28 -100 113q-4 -5 -11.5 -13 t-33 -29t-53.5 -37t-73 -29t-92 -13q-134 0 -239 91.5t-105 226.5zM293 287q0 -46 35.5 -73.5t79.5 -27.5q43 0 86.5 22.5t65.5 45.5l22 22q-13 78 -13 158h-108q-51 0 -87 -14.5t-52 -39t-22.5 -47t-6.5 -46.5zM332 1153l110 195q19 37 45 63q34 34 80.5 42t83.5 -23 q31 -36 23 -83.5t-41 -80.5q-25 -25 -64 -45l-194 -111z" />
<glyph unicode="&#xe2;" horiz-adv-x="987" d="M55 287q0 148 117.5 237.5t288.5 89.5h108q0 67 -38.5 105.5t-110.5 38.5q-96 0 -166 -49l-84 186q4 3 11.5 8.5t32.5 19t52.5 23.5t69 18.5t84.5 8.5q184 0 283.5 -103.5t99.5 -265.5v-198q0 -101 37.5 -175.5t117.5 -136.5l-196 -117q-41 28 -100 113q-4 -5 -11.5 -13 t-33 -29t-53.5 -37t-73 -29t-92 -13q-134 0 -239 91.5t-105 226.5zM123 1169l326 326l325 -326l-102 -71l-223 172l-224 -172zM293 287q0 -46 35.5 -73.5t79.5 -27.5q43 0 86.5 22.5t65.5 45.5l22 22q-13 78 -13 158h-108q-51 0 -87 -14.5t-52 -39t-22.5 -47t-6.5 -46.5z " />
<glyph unicode="&#xe3;" horiz-adv-x="983" d="M55 287q0 148 117.5 237.5t288.5 89.5h108q0 67 -38.5 105.5t-110.5 38.5q-96 0 -166 -49l-84 186q4 3 11.5 8.5t32.5 19t52.5 23.5t69 18.5t84.5 8.5q184 0 283.5 -103.5t99.5 -265.5v-198q0 -101 37.5 -175.5t117.5 -136.5l-196 -117q-41 28 -100 113q-4 -5 -11.5 -13 t-33 -29t-53.5 -37t-73 -29t-92 -13q-134 0 -239 91.5t-105 226.5zM201 1231q27 72 79.5 113t125.5 40q33 -1 64.5 -22t52.5 -45t51.5 -39t62.5 -6q66 18 102 92l45 -113q-27 -72 -79.5 -113t-124.5 -40q-27 1 -52.5 15t-45 33t-39.5 36.5t-44 26t-51 1.5q-66 -18 -102 -92z M293 287q0 -46 35.5 -73.5t79.5 -27.5q43 0 86.5 22.5t65.5 45.5l22 22q-13 78 -13 158h-108q-51 0 -87 -14.5t-52 -39t-22.5 -47t-6.5 -46.5z" />
<glyph unicode="&#xe4;" horiz-adv-x="987" d="M55 287q0 148 117.5 237.5t288.5 89.5h108q0 67 -38.5 105.5t-110.5 38.5q-96 0 -166 -49l-84 186q4 3 11.5 8.5t32.5 19t52.5 23.5t69 18.5t84.5 8.5q184 0 283.5 -103.5t99.5 -265.5v-198q0 -101 37.5 -175.5t117.5 -136.5l-196 -117q-41 28 -100 113q-4 -5 -11.5 -13 t-33 -29t-53.5 -37t-73 -29t-92 -13q-134 0 -239 91.5t-105 226.5zM184 1231q0 49 35 84t84 35t84 -35t35 -84t-35 -84t-84 -35t-84 35t-35 84zM293 287q0 -46 35.5 -73.5t79.5 -27.5q43 0 86.5 22.5t65.5 45.5l22 22q-13 78 -13 158h-108q-51 0 -87 -14.5t-52 -39 t-22.5 -47t-6.5 -46.5zM565 1229q0 49 34.5 84t84.5 35t84.5 -35t34.5 -84t-34.5 -84t-84.5 -35t-84.5 35t-34.5 84z" />
<glyph unicode="&#xe5;" horiz-adv-x="987" d="M55 287q0 148 117.5 237.5t288.5 89.5h108q0 67 -38.5 105.5t-110.5 38.5q-96 0 -166 -49l-84 186q4 3 11.5 8.5t32.5 19t52.5 23.5t69 18.5t84.5 8.5q184 0 283.5 -103.5t99.5 -265.5v-198q0 -101 37.5 -175.5t117.5 -136.5l-196 -117q-41 28 -100 113q-4 -5 -11.5 -13 t-33 -29t-53.5 -37t-73 -29t-92 -13q-134 0 -239 91.5t-105 226.5zM244 1294q0 92 65.5 158t157.5 66t157.5 -66t65.5 -158t-65.5 -157.5t-157.5 -65.5t-157.5 65.5t-65.5 157.5zM293 287q0 -46 35.5 -73.5t79.5 -27.5q43 0 86.5 22.5t65.5 45.5l22 22q-13 78 -13 158h-108 q-51 0 -87 -14.5t-52 -39t-22.5 -47t-6.5 -46.5zM365 1294q0 -41 30.5 -71.5t71.5 -30.5t71.5 30.5t30.5 71.5t-30.5 72t-71.5 31t-71.5 -31t-30.5 -72z" />
<glyph unicode="&#xe6;" horiz-adv-x="1433" d="M55 287q0 148 117.5 237.5t288.5 89.5h108q0 67 -38.5 105.5t-110.5 38.5q-36 0 -77.5 -12t-64.5 -24l-24 -13l-84 186q5 3 13 8.5t34.5 19t54.5 23.5t68.5 18.5t79.5 8.5q60 0 113 -12.5t85.5 -30.5t57 -35.5t34.5 -30.5l11 -12q124 121 278 121q78 0 142.5 -26.5 t107 -69.5t74.5 -97.5t47.5 -112.5t21.5 -112t2 -97.5t-16 -68.5h-561q0 -18 6.5 -41.5t21.5 -50.5t35.5 -49.5t53 -37.5t70.5 -15q42 0 79 9t59.5 22t39 26t23.5 22l7 9l156 -140q-5 -7 -14.5 -19t-44 -42t-73.5 -52.5t-103.5 -41.5t-133.5 -19q-54 0 -105 15.5t-82.5 33.5 t-62.5 45.5t-39.5 37.5t-19.5 24q-4 -6 -12 -16.5t-35.5 -37.5t-59 -47.5t-81.5 -37.5t-103 -17q-134 0 -239 91.5t-105 226.5zM293 287q0 -46 35.5 -73.5t79.5 -27.5q43 0 86.5 22.5t65.5 45.5l22 22q-13 78 -13 158h-108q-51 0 -87 -14.5t-52 -39t-22.5 -47t-6.5 -46.5z M827 573h316q0 20 -5.5 44t-19 54.5t-44 51t-73.5 20.5q-38 0 -69 -15t-50 -36t-32 -46t-18 -43.5t-5 -29.5z" />
<glyph unicode="&#xe7;" horiz-adv-x="913" d="M61 471q0 131 55 245t156.5 184.5t225.5 72.5q112 2 195.5 -33.5t154.5 -116.5v-237h-213v106q-58 47 -137 47q-63 -1 -109.5 -41t-68 -99.5t-21.5 -127.5t21.5 -127.5t68.5 -100t109 -40.5q127 0 190 82l178 -142q-72 -93 -159.5 -134.5t-208.5 -39.5h-6l-62 -61 q67 -5 115.5 -44.5t48.5 -99.5q0 -82 -87.5 -133t-209.5 -51h-31v92h31q129 0 129 72q0 39 -37.5 55.5t-89.5 16.5h-125q180 180 180 182q-133 52 -213 183t-80 290z" />
<glyph unicode="&#xe8;" horiz-adv-x="921" d="M61 471q0 131 52 245t151 185.5t223 71.5q90 0 162 -35t114.5 -90t71.5 -122t38 -133t7 -119.5t-14 -84.5h-563q0 -72 55.5 -133t128.5 -61q44 0 82 9t61 22t39.5 26t23.5 22l7 9l156 -140q-5 -7 -15 -19t-45 -42t-74.5 -52.5t-103 -41.5t-131.5 -19q-95 0 -176 42 t-135 111.5t-84.5 160t-30.5 188.5zM311 1354.5q-8 47.5 23 83.5q37 31 83.5 23t80.5 -42q26 -26 45 -63l110 -195l-43 -43l-194 111q-39 20 -64 45q-33 33 -41 80.5zM313 573h316q0 20 -5.5 44t-19 54.5t-44 51t-73.5 20.5q-38 0 -69 -15t-50 -36t-32 -46t-18 -43.5 t-5 -29.5z" />
<glyph unicode="&#xe9;" horiz-adv-x="921" d="M61 471q0 131 52 245t151 185.5t223 71.5q90 0 162 -35t114.5 -90t71.5 -122t38 -133t7 -119.5t-14 -84.5h-563q0 -72 55.5 -133t128.5 -61q44 0 82 9t61 22t39.5 26t23.5 22l7 9l156 -140q-5 -7 -15 -19t-45 -42t-74.5 -52.5t-103 -41.5t-131.5 -19q-95 0 -176 42 t-135 111.5t-84.5 160t-30.5 188.5zM313 573h316q0 20 -5.5 44t-19 54.5t-44 51t-73.5 20.5q-38 0 -69 -15t-50 -36t-32 -46t-18 -43.5t-5 -29.5zM365 1153l110 195q19 37 45 63q34 34 80.5 42t83.5 -23q31 -36 23 -83.5t-41 -80.5q-25 -25 -64 -45l-194 -111z" />
<glyph unicode="&#xea;" horiz-adv-x="921" d="M61 471q0 131 52 245t151 185.5t223 71.5q90 0 162 -35t114.5 -90t71.5 -122t38 -133t7 -119.5t-14 -84.5h-563q0 -72 55.5 -133t128.5 -61q44 0 82 9t61 22t39.5 26t23.5 22l7 9l156 -140q-5 -7 -15 -19t-45 -42t-74.5 -52.5t-103 -41.5t-131.5 -19q-95 0 -176 42 t-135 111.5t-84.5 160t-30.5 188.5zM180 1174l326 325l325 -325l-102 -72l-223 172l-223 -172zM313 573h316q0 20 -5.5 44t-19 54.5t-44 51t-73.5 20.5q-38 0 -69 -15t-50 -36t-32 -46t-18 -43.5t-5 -29.5z" />
<glyph unicode="&#xeb;" horiz-adv-x="921" d="M61 471q0 131 52 245t151 185.5t223 71.5q90 0 162 -35t114.5 -90t71.5 -122t38 -133t7 -119.5t-14 -84.5h-563q0 -72 55.5 -133t128.5 -61q44 0 82 9t61 22t39.5 26t23.5 22l7 9l156 -140q-5 -7 -15 -19t-45 -42t-74.5 -52.5t-103 -41.5t-131.5 -19q-95 0 -176 42 t-135 111.5t-84.5 160t-30.5 188.5zM209 1227q0 49 34.5 84t84.5 35q49 0 83.5 -34.5t34.5 -84.5t-34.5 -84.5t-83.5 -34.5q-50 0 -84.5 35t-34.5 84zM313 573h316q0 20 -5.5 44t-19 54.5t-44 51t-73.5 20.5q-38 0 -69 -15t-50 -36t-32 -46t-18 -43.5t-5 -29.5zM590 1225 q0 49 34.5 83.5t84.5 34.5q49 0 83.5 -34.5t34.5 -83.5q0 -50 -34.5 -84.5t-83.5 -34.5t-84 35t-35 84z" />
<glyph unicode="&#xec;" horiz-adv-x="565" d="M53 0v213h107v516h-107v213h340v-729h107v-213h-447zM59 1350.5q-8 47.5 23 83.5q37 31 83.5 23t80.5 -42q26 -26 45 -63l110 -195l-43 -43l-194 111q-39 20 -64 45q-33 33 -41 80.5z" />
<glyph unicode="&#xed;" horiz-adv-x="565" d="M53 0v213h107v516h-107v213h340v-729h107v-213h-447zM147 1149l111 194q20 39 45 64q33 33 80.5 41t83.5 -23q31 -36 23 -83t-41 -80q-25 -25 -64 -45l-195 -111z" />
<glyph unicode="&#xee;" horiz-adv-x="565" d="M-51 1178l325 325l326 -325l-102 -72l-224 172l-223 -172zM53 0v213h107v516h-107v213h340v-729h107v-213h-447z" />
<glyph unicode="&#xef;" horiz-adv-x="565" d="M-23 1227q0 49 34.5 84t84.5 35t84.5 -35t34.5 -84t-34.5 -84t-84.5 -35t-84.5 35t-34.5 84zM53 0v213h107v516h-107v213h340v-729h107v-213h-447zM358 1225q0 49 34.5 83.5t84.5 34.5t84.5 -34.5t34.5 -83.5t-35 -84t-84 -35t-84 35t-35 84z" />
<glyph unicode="&#xf0;" horiz-adv-x="1003" d="M84 358q0 171 102 277t277 106q90 0 194 -55q-48 139 -151 236l-187 -119l-108 164l121 75q-60 33 -125 54l143 174q100 -41 182 -99l224 142l106 -166l-170 -109q242 -248 242 -587q0 -123 -34 -217t-94.5 -151t-139 -85.5t-172.5 -28.5q-171 0 -290.5 111t-119.5 278z M319 369q0 -75 53 -119.5t132 -44.5t131.5 44.5t52.5 119.5q0 74 -52.5 116.5t-131.5 42.5q-80 0 -132.5 -42.5t-52.5 -116.5z" />
<glyph unicode="&#xf1;" horiz-adv-x="1155" d="M29 848l196 117q20 -15 49.5 -50t49.5 -63l20 -27q6 6 17 16.5t45 36.5t69 46t84.5 36.5t95.5 16.5q129 0 222.5 -83t93.5 -210v-471h106v-213h-340v573q0 26 -2 46t-9 42t-19 36.5t-33.5 24t-50.5 9.5q-35 0 -69 -18t-57.5 -44t-42 -52t-27.5 -44l-9 -18v-342h106v-213 h-446v213h106v324q0 100 -37.5 174.5t-117.5 136.5zM260 1235q27 72 80 113.5t125 40.5q27 -1 52.5 -15.5t45 -33t39 -36.5t43.5 -26.5t51 -1.5q67 18 103 92l45 -113q-27 -72 -79.5 -113t-125.5 -40q-33 1 -64.5 22t-52.5 45t-51.5 39t-62.5 6q-67 -18 -103 -92z" />
<glyph unicode="&#xf2;" horiz-adv-x="1015" d="M61 471q0 132 56 246.5t160 185t231 70.5t230.5 -70.5t159.5 -185t56 -246.5t-56 -246.5t-159.5 -185t-230.5 -70.5t-231 70.5t-160 185t-56 246.5zM299 471q0 -107 57 -187.5t152 -80.5t152 80.5t57 187.5t-57 187.5t-152 80.5t-152 -80.5t-57 -187.5zM335 1354.5 q-8 46.5 23 83.5q37 31 83.5 23t80.5 -42q26 -26 45 -63l111 -195l-43 -43l-195 111q-37 19 -63 45q-34 34 -42 80.5z" />
<glyph unicode="&#xf3;" horiz-adv-x="1015" d="M61 471q0 132 56 246.5t160 185t231 70.5t230.5 -70.5t159.5 -185t56 -246.5t-56 -246.5t-159.5 -185t-230.5 -70.5t-231 70.5t-160 185t-56 246.5zM299 471q0 -107 57 -187.5t152 -80.5t152 80.5t57 187.5t-57 187.5t-152 80.5t-152 -80.5t-57 -187.5zM369 1149l110 194 q20 39 45 64q33 33 80.5 41t83.5 -23q31 -36 23.5 -83t-41.5 -80q-25 -25 -64 -45l-194 -111z" />
<glyph unicode="&#xf4;" horiz-adv-x="1015" d="M61 471q0 132 56 246.5t160 185t231 70.5t230.5 -70.5t159.5 -185t56 -246.5t-56 -246.5t-159.5 -185t-230.5 -70.5t-231 70.5t-160 185t-56 246.5zM184 1169l326 326l326 -326l-103 -71l-223 172l-223 -172zM299 471q0 -107 57 -187.5t152 -80.5t152 80.5t57 187.5 t-57 187.5t-152 80.5t-152 -80.5t-57 -187.5z" />
<glyph unicode="&#xf5;" horiz-adv-x="1015" d="M61 471q0 132 56 246.5t160 185t231 70.5t230.5 -70.5t159.5 -185t56 -246.5t-56 -246.5t-159.5 -185t-230.5 -70.5t-231 70.5t-160 185t-56 246.5zM233 1231q27 72 79.5 113t125.5 40q27 -1 52.5 -15t45 -33t39.5 -36.5t44 -26t51 -1.5q66 18 102 92l45 -113 q-27 -72 -79.5 -113t-125.5 -40q-33 1 -64.5 22t-52.5 45t-51.5 39t-62.5 6q-66 -18 -102 -92zM299 471q0 -107 57 -187.5t152 -80.5t152 80.5t57 187.5t-57 187.5t-152 80.5t-152 -80.5t-57 -187.5z" />
<glyph unicode="&#xf6;" horiz-adv-x="1015" d="M61 471q0 132 56 246.5t160 185t231 70.5t230.5 -70.5t159.5 -185t56 -246.5t-56 -246.5t-159.5 -185t-230.5 -70.5t-231 70.5t-160 185t-56 246.5zM223 1231q0 49 34.5 84t84.5 35t84.5 -35t34.5 -84t-34.5 -84t-84.5 -35t-84.5 35t-34.5 84zM299 471q0 -107 57 -187.5 t152 -80.5t152 80.5t57 187.5t-57 187.5t-152 80.5t-152 -80.5t-57 -187.5zM604 1229q0 49 35 84t84 35t84 -35t35 -84t-35 -84t-84 -35t-84 35t-35 84z" />
<glyph unicode="&#xf8;" horiz-adv-x="1024" d="M29 106l100 113q-57 117 -57 252q0 132 56 246.5t159.5 185t230.5 70.5q129 0 227 -70l80 88l156 -139l-92 -100q76 -127 76 -281q0 -132 -56 -246.5t-160 -185t-231 -70.5q-141 0 -256 88l-80 -90zM309 471q0 -8 2 -24.5t2 -24.5l273 305q-30 12 -68 12 q-95 0 -152 -80.5t-57 -187.5zM420 231q45 -28 98 -28q95 0 152 80.5t57 187.5q0 45 -12 88z" />
<glyph unicode="&#xf9;" horiz-adv-x="1110" d="M53 729v213h340v-573q0 -21 1 -36t6.5 -40t15.5 -41t30.5 -28.5t49.5 -12.5q46 0 83.5 18t57.5 44t33.5 52t17.5 44l4 18v342h-106v213h340v-536q0 -101 37.5 -175.5t117.5 -136.5l-196 -117q-14 9 -43 43t-52 64l-22 29q-6 -6 -16.5 -16t-43.5 -35.5t-67 -45t-83 -35.5 t-95 -16q-118 0 -210.5 83.5t-92.5 209.5v471h-107zM331 1356.5q-8 46.5 23 83.5q37 31 83.5 23t80.5 -42q26 -26 45 -63l111 -195l-43 -43l-195 111q-37 19 -63 45q-34 34 -42 80.5z" />
<glyph unicode="&#xfa;" horiz-adv-x="1110" d="M53 729v213h340v-573q0 -21 1 -36t6.5 -40t15.5 -41t30.5 -28.5t49.5 -12.5q46 0 83.5 18t57.5 44t33.5 52t17.5 44l4 18v342h-106v213h340v-536q0 -101 37.5 -175.5t117.5 -136.5l-196 -117q-14 9 -43 43t-52 64l-22 29q-6 -6 -16.5 -16t-43.5 -35.5t-67 -45t-83 -35.5 t-95 -16q-118 0 -210.5 83.5t-92.5 209.5v471h-107zM393 1151l111 195q19 37 45 63q33 33 80.5 41t83.5 -23q31 -37 23 -83t-42 -80q-26 -26 -63 -45l-195 -111z" />
<glyph unicode="&#xfb;" horiz-adv-x="1110" d="M53 729v213h340v-573q0 -21 1 -36t6.5 -40t15.5 -41t30.5 -28.5t49.5 -12.5q46 0 83.5 18t57.5 44t33.5 52t17.5 44l4 18v342h-106v213h340v-536q0 -101 37.5 -175.5t117.5 -136.5l-196 -117q-14 9 -43 43t-52 64l-22 29q-6 -6 -16.5 -16t-43.5 -35.5t-67 -45t-83 -35.5 t-95 -16q-118 0 -210.5 83.5t-92.5 209.5v471h-107zM195 1169l325 326l326 -326l-103 -71l-223 172l-223 -172z" />
<glyph unicode="&#xfc;" horiz-adv-x="1110" d="M53 729v213h340v-573q0 -21 1 -36t6.5 -40t15.5 -41t30.5 -28.5t49.5 -12.5q46 0 83.5 18t57.5 44t33.5 52t17.5 44l4 18v342h-106v213h340v-536q0 -101 37.5 -175.5t117.5 -136.5l-196 -117q-14 9 -43 43t-52 64l-22 29q-6 -6 -16.5 -16t-43.5 -35.5t-67 -45t-83 -35.5 t-95 -16q-118 0 -210.5 83.5t-92.5 209.5v471h-107zM227 1227q0 49 34.5 84t84.5 35t84.5 -35t34.5 -84t-34.5 -84t-84.5 -35t-84.5 35t-34.5 84zM608 1225q0 49 34.5 83.5t84.5 34.5t84.5 -34.5t34.5 -83.5t-35 -84t-84 -35t-84 35t-35 84z" />
<glyph unicode="&#xfd;" horiz-adv-x="1003" d="M33 897l233 66l240 -631l239 631l234 -66l-584 -1378l-205 67l195 477zM385 1141l111 194q20 39 45 64q33 33 80.5 41t83.5 -23q31 -37 23 -83.5t-42 -80.5q-26 -26 -63 -45l-195 -110z" />
<glyph unicode="&#xfe;" horiz-adv-x="1093" d="M143 -451v1864h234v-526q4 3 11.5 9t30.5 21t47 26t57.5 20.5t64.5 9.5q127 0 230.5 -70.5t159.5 -185t56 -246.5q0 -130 -60.5 -246t-164 -186t-221.5 -70q-55 0 -107.5 21.5t-78.5 43.5l-25 21v-506h-234zM377 471q0 -106 58 -187t153 -81t152 80.5t57 187.5t-57 187.5 t-152 80.5t-153 -81t-58 -187z" />
<glyph unicode="&#xff;" horiz-adv-x="1003" d="M33 897l233 66l240 -631l239 631l234 -66l-584 -1378l-205 67l195 477zM227 1227q0 49 34.5 84t84.5 35t84.5 -35t34.5 -84t-34.5 -84t-84.5 -35t-84.5 35t-34.5 84zM608 1225q0 49 34.5 83.5t84.5 34.5t84.5 -34.5t34.5 -83.5t-35 -84t-84 -35t-84 35t-35 84z" />
<glyph unicode="&#x152;" horiz-adv-x="1617" d="M76 614q0 122 36 237.5t101 207t164.5 146.5t216.5 55q79 0 138.5 -22t133.5 -73v64h652v-242h-410v-221h348v-242h-348v-282h430v-242h-672v63q-73 -50 -133 -72t-139 -22q-117 0 -216.5 55t-164.5 146t-101 206.5t-36 237.5zM322 614q0 -79 16 -150.5t48 -129.5 t85.5 -92.5t122.5 -34.5t122.5 34.5t85.5 92.5t48 129.5t16 150.5q0 108 -27.5 197.5t-90.5 150t-154 60.5t-154 -60.5t-90.5 -150t-27.5 -197.5z" />
<glyph unicode="&#x153;" horiz-adv-x="1597" d="M61 471q0 132 56 246.5t160 185t231 70.5q191 0 323 -156q126 159 312 156q78 -1 142.5 -28t107 -70.5t74.5 -98t47.5 -111.5t21.5 -111t2 -97t-16 -68h-564q18 -186 185 -190q72 -2 124 16.5t89 67.5l155 -140q-69 -93 -157 -133.5t-211 -40.5q-186 0 -314 156 q-130 -156 -321 -156q-127 0 -231 70.5t-160 185t-56 246.5zM299 471q0 -107 57 -187.5t152 -80.5t152 80.5t57 187.5t-57 187.5t-152 80.5t-152 -80.5t-57 -187.5zM969 573h315q0 6 -1.5 20t-10 42t-22 50.5t-42 40t-65.5 17.5q-39 0 -71 -17.5t-50.5 -41.5t-31 -50.5 t-17 -42t-4.5 -18.5z" />
<glyph unicode="&#x178;" horiz-adv-x="1105" d="M23 1176l235 84l295 -541l295 541l235 -84l-407 -699v-256h110v-221h-467v221h111v256zM276 1503q0 49 35 84t84 35t84 -35t35 -84t-35 -84t-84 -35t-84 35t-35 84zM657 1501q0 49 34.5 84t84.5 35t84.5 -35t34.5 -84t-34.5 -84t-84.5 -35t-84.5 35t-34.5 84z" />
<glyph unicode="&#x2c6;" horiz-adv-x="819" d="M0 1292l326 326l325 -326l-102 -71l-223 172l-224 -172z" />
<glyph unicode="&#x2dc;" horiz-adv-x="716" d="M10 1407q27 72 80 113.5t125 40.5q27 -1 52.5 -15.5t45 -33t39 -36.5t43.5 -26.5t51 -1.5q67 18 103 92l45 -113q-27 -72 -79.5 -113t-125.5 -40q-33 1 -64.5 22t-52.5 45t-51.5 39t-62.5 6q-67 -18 -103 -92z" />
<glyph unicode="&#x2000;" horiz-adv-x="895" />
<glyph unicode="&#x2001;" horiz-adv-x="1790" />
<glyph unicode="&#x2002;" horiz-adv-x="895" />
<glyph unicode="&#x2003;" horiz-adv-x="1790" />
<glyph unicode="&#x2004;" horiz-adv-x="596" />
<glyph unicode="&#x2005;" horiz-adv-x="447" />
<glyph unicode="&#x2006;" horiz-adv-x="298" />
<glyph unicode="&#x2007;" horiz-adv-x="298" />
<glyph unicode="&#x2008;" horiz-adv-x="223" />
<glyph unicode="&#x2009;" horiz-adv-x="358" />
<glyph unicode="&#x200a;" horiz-adv-x="99" />
<glyph unicode="&#x2010;" horiz-adv-x="860" d="M135 549v254h553v-254h-553z" />
<glyph unicode="&#x2011;" horiz-adv-x="860" d="M135 549v254h553v-254h-553z" />
<glyph unicode="&#x2012;" horiz-adv-x="860" d="M135 549v254h553v-254h-553z" />
<glyph unicode="&#x2013;" horiz-adv-x="1167" d="M0 549v254h1167v-254h-1167z" />
<glyph unicode="&#x2014;" horiz-adv-x="1433" d="M0 549v254h1434v-254h-1434z" />
<glyph unicode="&#x2018;" horiz-adv-x="573" d="M111 1257q0 84 43.5 135.5t115.5 51.5q59 0 104.5 -42t45.5 -104q0 -96 -92 -143q5 -42 23.5 -79.5t36 -58.5t50.5 -54l-104 -70q-20 12 -52.5 41.5t-73 77t-69 114t-28.5 131.5z" />
<glyph unicode="&#x2019;" horiz-adv-x="573" d="M119 963q33 33 50.5 54t36 58.5t23.5 79.5q-92 47 -92 143q0 62 45.5 104t104.5 42q72 0 115.5 -51.5t43.5 -135.5q0 -65 -28.5 -131.5t-69 -114t-73 -77t-52.5 -41.5q-86 58 -104 70z" />
<glyph unicode="&#x201c;" horiz-adv-x="942" d="M111 1257q0 84 43.5 135.5t115.5 51.5q59 0 104.5 -42t45.5 -104q0 -96 -92 -143q5 -42 23.5 -79.5t36 -58.5t50.5 -54l-104 -70q-20 12 -52.5 41.5t-73 77t-69 114t-28.5 131.5zM500 1257q0 84 43.5 135.5t115.5 51.5q59 0 104.5 -42t45.5 -104q0 -96 -92 -143 q5 -42 23.5 -79.5t36 -58.5t50.5 -54l-104 -70q-20 12 -52.5 41.5t-73 77t-69 114t-28.5 131.5z" />
<glyph unicode="&#x201d;" horiz-adv-x="942" d="M119 963q33 33 50.5 54t36 58.5t23.5 79.5q-92 47 -92 143q0 62 45.5 104t104.5 42q72 0 115.5 -51.5t43.5 -135.5q0 -65 -28.5 -131.5t-69 -114t-73 -77t-52.5 -41.5q-86 58 -104 70zM508 963q33 33 50.5 54t36 58.5t23.5 79.5q-92 47 -92 143q0 62 45.5 104t104.5 42 q72 0 116 -52t44 -135q0 -53 -19.5 -107.5t-47.5 -95.5t-61.5 -77t-57 -55.5t-38.5 -28.5q-86 58 -104 70z" />
<glyph unicode="&#x201e;" horiz-adv-x="937" d="M119 -188q33 33 50.5 54t36 58.5t23.5 79.5q-92 47 -92 143q0 62 45.5 104t104.5 42q72 0 115.5 -51.5t43.5 -135.5q0 -65 -28.5 -131.5t-69 -114t-73 -77t-52.5 -41.5q-86 58 -104 70zM508 -188q33 33 50.5 54t36 58.5t23.5 79.5q-92 47 -92 143q0 62 45.5 104t104.5 42 q72 0 116 -52t44 -135q0 -53 -19.5 -107.5t-47.5 -95.5t-61.5 -77t-57 -55.5t-38.5 -28.5q-86 58 -104 70z" />
<glyph unicode="&#x2022;" horiz-adv-x="655" d="M102 819q0 92 67 158.5t159 66.5t158.5 -66.5t66.5 -158.5t-66.5 -158.5t-158.5 -66.5t-159 66.5t-67 158.5z" />
<glyph unicode="&#x2026;" horiz-adv-x="1843" d="M131 127q0 65 45.5 110.5t110.5 45.5q64 0 109.5 -45.5t45.5 -110.5t-45.5 -110.5t-109.5 -45.5q-65 0 -110.5 45.5t-45.5 110.5zM745 127q0 65 45.5 110.5t110.5 45.5t110.5 -45.5t45.5 -110.5t-45.5 -110.5t-110.5 -45.5t-110.5 45.5t-45.5 110.5zM1360 127 q0 65 46 110.5t110 45.5t109.5 -45.5t45.5 -110.5t-45.5 -110.5t-109.5 -45.5t-110 45.5t-46 110.5z" />
<glyph unicode="&#x202f;" horiz-adv-x="358" />
<glyph unicode="&#x205f;" horiz-adv-x="447" />
<glyph unicode="&#x2122;" horiz-adv-x="1413" d="M84 1092v137h475v-137h-164v-353h64v-125h-275v125h64v353h-164zM592 623l117 606h137l110 -416l109 416h137l117 -606l-148 -29l-43 405l-104 -385h-137l-105 385l-43 -405z" />
<glyph unicode="&#x25fc;" horiz-adv-x="972" d="M0 0v973h973v-973h-973z" />
</font>
</defs>
</svg>
